<?xml version="1.0" encoding="iso-8859-1"?>
<!-- Generator: Adobe Illustrator 19.0.0, SVG Export Plug-In . SVG Version: 6.00 Build 0)  -->
<svg version="1.1" id="Capa_1" xmlns="http://www.w3.org/2000/svg" xmlns:xlink="http://www.w3.org/1999/xlink" x="0px" y="0px"
	 viewBox="0 0 491.52 491.52" style="enable-background:new 0 0 491.52 491.52;" xml:space="preserve">
<circle style="fill:#EA8953;" cx="245.76" cy="245.76" r="245.76"/>
<path style="opacity:0.1;enable-background:new    ;" d="M287.898,148.296l-43.366-43.315H135.987c-6.349,0-11.52,5.171-11.52,11.52
	v215.194c0,3.277,1.331,6.246,3.533,8.294L277.431,489.42c95.193-12.257,173.301-78.926,202.118-167.853l-173.27-173.271H287.898z"
	/>
<path style="fill:#64798A;" d="M306.253,148.277H197.738c-6.379,0-11.55,5.171-11.55,11.55v215.182
	c0,6.379,5.171,11.551,11.55,11.551h157.776c6.38,0,11.55-5.172,11.55-11.551V209.089L306.253,148.277z"/>
<path style="fill:#EBF0F3;" d="M244.521,104.96H136.006c-6.38,0-11.55,5.171-11.55,11.55v215.182c0,6.379,5.171,11.55,11.55,11.55
	h157.776c6.379,0,11.55-5.171,11.55-11.55V165.771L244.521,104.96z"/>
<path style="fill:#D5D6DB;" d="M244.521,154.221c0,6.379,5.171,11.55,11.55,11.55h49.261l-60.811-60.811V154.221z"/>
<rect x="137.723" y="141.921" style="fill:#E56353;" width="84.91" height="10.148"/>
<g>
	<rect x="137.723" y="175.565" style="fill:#E1E6E9;" width="154.317" height="10.148"/>
	<rect x="137.723" y="202.798" style="fill:#E1E6E9;" width="154.317" height="10.148"/>
	<rect x="137.723" y="230.036" style="fill:#E1E6E9;" width="154.317" height="10.148"/>
	<rect x="137.723" y="257.28" style="fill:#E1E6E9;" width="154.317" height="10.148"/>
	<rect x="137.723" y="284.518" style="fill:#E1E6E9;" width="154.317" height="10.148"/>
	<rect x="137.723" y="311.747" style="fill:#E1E6E9;" width="95.565" height="10.148"/>
</g>
<polygon style="fill:#E56353;" points="256.806,246.91 214.264,246.91 214.264,289.453 225.244,278.473 259.548,312.777 
	280.13,292.194 245.826,257.89 "/>
<polygon style="fill:#44C4A1;" points="296.446,295.902 338.989,295.903 338.988,253.36 328.009,264.34 293.705,230.036 
	273.122,250.618 307.426,284.922 "/>
<g>
</g>
<g>
</g>
<g>
</g>
<g>
</g>
<g>
</g>
<g>
</g>
<g>
</g>
<g>
</g>
<g>
</g>
<g>
</g>
<g>
</g>
<g>
</g>
<g>
</g>
<g>
</g>
<g>
</g>
</svg>
