<svg height="511pt" viewBox="0 0 511.9903 511" width="511pt" xmlns="http://www.w3.org/2000/svg"><path d="m8 439.921875h464v48c0 8.839844-7.164062 16-16 16h-432c-8.835938 0-16-7.160156-16-16zm0 0" fill="#91e8ed"/><path d="m327.5 26.625 173.328125 360.371094c7.660156 15.929687.960937 35.050781-14.96875 42.710937l-14.417969 6.933594-201.0625-418.039063 14.417969-6.9375c15.925781-7.660156 35.042969-.960937 42.703125 14.960938zm0 0" fill="#00c3ff"/><path d="m40 119.921875h224v272h-224zm0 0" fill="#fff"/><path d="m72 151.921875h160v128h-160zm0 0" fill="#91e8ed"/><path d="m72 199.921875c26.507812 0 48-21.488281 48-48h-48zm0 0" fill="#ff8a80"/><path d="m135.96875 279.417969 11.992188-20-27.992188-27.992188-47.984375 47.992188zm0 0" fill="#9ccc65"/><path d="m135.96875 279.417969 47.984375-79.984375 47.984375 79.984375zm0 0" fill="#9ccc65"/><g fill="#fff"><path d="m32 463.921875h16v16h-16zm0 0"/><path d="m64 463.921875h16v16h-16zm0 0"/><path d="m96 463.921875h16v16h-16zm0 0"/></g><path d="m508.039062 383.523438-173.328124-360.398438c-9.589844-19.890625-33.480469-28.246094-53.375-18.671875l-21.601563 10.398437 200.578125 417.070313h-460.3125v56c0 13.257813 10.746094 24 24 24h432c13.253906 0 24-10.742187 24-24v-46.535156l9.335938-4.488281c19.902343-9.578126 28.273437-33.46875 18.703124-53.375zm-44.039062 104.398437c0 4.417969-3.582031 8-8 8h-432c-4.417969 0-8-3.582031-8-8v-40h448zm30.640625-79.125c-2.085937 6.011719-6.496094 10.941406-12.242187 13.679687l-7.199219 3.472657-194.136719-403.625 7.203125-3.464844c11.929687-5.726563 26.242187-.71875 32 11.199219l173.335937 360.402344c2.777344 5.726562 3.152344 12.328124 1.039063 18.335937zm0 0"/><path d="m272 111.921875h-240v288h240zm-16 272h-208v-256h208zm0 0"/><path d="m240 143.921875h-176v144h176zm-160 16h31.199219c-3.230469 15.703125-15.5 27.972656-31.199219 31.203125zm51.128906 112h-40.34375l29.214844-29.175781 17.921875 17.914062zm18.664063 0 8.238281-13.734375 25.921875-43.199219 34.160156 56.933594zm74.207031-21.292969-40.046875-66.707031-37.601563 62.632813-26.398437-26.398438-40 40v-52.800781c24.566406-3.558594 43.855469-22.863281 47.398437-47.433594h96.648438zm0 0"/><path d="m64 303.921875h112v16h-112zm0 0"/><path d="m64 335.921875h64v16h-64zm0 0"/></svg>