<svg height="496pt" viewBox="0 0 496 496" width="496pt" xmlns="http://www.w3.org/2000/svg" xmlns:xlink="http://www.w3.org/1999/xlink"><linearGradient id="a" gradientUnits="userSpaceOnUse" x1="248" x2="248" y1="496" y2="0"><stop offset="0" stop-color="#9f2fff"/><stop offset="1" stop-color="#0bb1d3"/></linearGradient><path d="m472.375 346.703125 12.183594-20.535156-42.726563-42.726563-20.535156 12.183594c-.394531-.167969-.785156-.328125-1.167969-.488281l-5.921875-23.136719h-60.421875l-5.914062 23.144531c-.390625.160157-.78125.320313-1.167969.488281l-20.535156-12.183593-42.726563 42.726562 12.183594 20.535157c-.167969.394531-.328125.785156-.488281 1.167968l-23.136719 5.914063v60.421875l23.144531 5.914062c.160157.390625.320313.78125.488281 1.167969l-12.183593 20.535156 42.726562 42.726563 20.535157-12.183594c.394531.167969.785156.328125 1.167968.488281l5.914063 23.136719h60.421875l5.914062-23.144531c.390625-.160157.78125-.320313 1.167969-.488281l20.535156 12.183593 42.726563-42.726562-12.183594-20.535157c.167969-.394531.328125-.785156.488281-1.167968l23.136719-5.914063v-60.421875l-23.144531-5.914062c-.152344-.382813-.320313-.773438-.480469-1.167969zm7.625 55.089844-19.257812 4.910156-1.429688 4.03125c-.914062 2.609375-1.976562 5.152344-3.160156 7.625l-1.839844 3.847656 10.144531 17.097657-25.152343 25.152343-17.097657-10.144531-3.847656 1.839844c-2.480469 1.175781-5.015625 2.238281-7.625 3.160156l-4.03125 1.429688-4.910156 19.257812h-35.578125l-4.910156-19.257812-4.03125-1.429688c-2.609376-.914062-5.152344-1.976562-7.625-3.160156l-3.847657-1.839844-17.097656 10.144531-25.152344-25.152343 10.144531-17.097657-1.839843-3.847656c-1.175781-2.480469-2.238281-5.015625-3.160157-7.625l-1.429687-4.03125-19.265625-4.910156v-35.578125l19.257812-4.910156 1.429688-4.03125c.914062-2.609376 1.976562-5.152344 3.160156-7.625l1.839844-3.847657-10.144531-17.097656 25.152343-25.152344 17.097657 10.144531 3.847656-1.839843c2.480469-1.175781 5.015625-2.238281 7.625-3.160157l4.03125-1.429687 4.910156-19.265625h35.578125l4.910156 19.257812 4.03125 1.429688c2.609376.914062 5.152344 1.976562 7.625 3.160156l3.847657 1.839844 17.097656-10.144531 25.152344 25.152343-10.144531 17.097657 1.839843 3.847656c1.175781 2.480469 2.238281 5.015625 3.160157 7.625l1.429687 4.03125 19.265625 4.910156zm-96-81.792969c-35.289062 0-64 28.710938-64 64s28.710938 64 64 64 64-28.710938 64-64-28.710938-64-64-64zm0 112c-26.472656 0-48-21.527344-48-48s21.527344-48 48-48 48 21.527344 48 48-21.527344 48-48 48zm0-80c-17.648438 0-32 14.351562-32 32s14.351562 32 32 32 32-14.351562 32-32-14.351562-32-32-32zm0 48c-8.824219 0-16-7.175781-16-16s7.175781-16 16-16 16 7.175781 16 16-7.175781 16-16 16zm-40-185.824219c0-16.582031-10.433594-31.632812-25.953125-37.457031l-38.046875-14.261719v-6.777343c6.054688-5.433594 10.71875-12.359376 13.398438-20.222657 15.074218-2.585937 26.601562-15.664062 26.601562-31.457031v-32c0-39.695312-32.296875-72-72-72s-72 32.304688-72 72v32c0 15.792969 11.527344 28.871094 26.601562 31.457031 2.679688 7.855469 7.34375 14.78125 13.398438 20.222657v6.785156l-38.039062 14.261718c-15.527344 5.816407-25.960938 20.867188-25.960938 37.449219v41.824219h192zm-58.320312-32.503906-10.351563 31.046875-16.023437-8.007812 16.128906-26.878907zm-37.679688 10.777344-16-26.664063v-.585937c5.015625 1.785156 10.382812 2.800781 16 2.800781s10.984375-1.023438 16-2.800781v.585937zm0-40.449219c-17.648438 0-32-14.351562-32-32v-32.542969c11.710938-1.234375 22.761719-5.503906 32-12.769531 9.238281 7.273438 20.289062 11.535156 32 12.769531v32.542969c0 17.648438-14.351562 32-32 32zm48-34.222656v-27.546875c4.761719 2.777343 8 7.882812 8 13.777343 0 5.894532-3.238281 10.992188-8 13.769532zm-48-101.777344c30.871094 0 56 25.121094 56 56v4.449219c-4.726562-2.753907-10.144531-4.449219-16-4.449219h-1.375c-12.457031 0-24.167969-4.847656-32.96875-13.65625l-5.65625-5.664062-5.65625 5.664062c-8.808594 8.808594-20.511719 13.65625-32.96875 13.65625h-1.375c-5.855469 0-11.273438 1.695312-16 4.449219v-4.449219c0-30.878906 25.128906-56 56-56zm-56 88c0-5.894531 3.238281-11 8-13.777344v27.546875c-4.761719-2.769531-8-7.875-8-13.769531zm28.566406 73.832031 16.128906 26.871094-16.023437 8.007813-10.351563-31.039063zm107.433594 62.167969h-160v-25.824219c0-9.953125 6.257812-18.976562 15.574219-22.472656l11.761719-4.40625 15.992187 47.984375 36.671875-18.335938 36.671875 18.335938 15.992187-47.984375 11.769532 4.414063c9.308594 3.488281 15.566406 12.511718 15.566406 22.464843zm-168 48h-160v208h160zm-16 192h-128v-176h128zm-16-144h-96v-16h96zm-80 32h-16v-16h16zm16-16h64v16h-64zm64 48h-96v-16h96zm0 32h-96v-16h96zm-16 16h16v16h-16zm-16 16h-64v-16h64zm18.34375-325.65625 18.34375-18.34375h-36.6875c-4.414062 0-8 3.59375-8 8v144h-16v-144c0-13.230469 10.769531-24 24-24h36.6875l-18.34375-18.34375 11.3125-11.3125 37.65625 37.65625-37.65625 37.65625zm141.65625 253.65625h-60.6875l18.34375 18.34375-11.3125 11.3125-37.65625-37.65625 37.65625-37.65625 11.3125 11.3125-18.34375 18.34375h60.6875zm128-163.3125v-100.6875c0-4.40625-3.585938-8-8-8h-40v-16h40c13.230469 0 24 10.769531 24 24v100.6875l18.34375-18.34375 11.3125 11.3125-37.65625 37.65625-37.65625-37.65625 11.3125-11.3125zm0 0" fill="url(#a)"/></svg>