<svg height="437pt" viewBox="0 -21 437.38 437" width="437pt" xmlns="http://www.w3.org/2000/svg"><path d="m430.378906 247.410156v26.699219c0 16.15625-13.09375 29.25-29.25 29.25h-364.878906c-16.15625 0-29.25-13.09375-29.25-29.25v-26.699219zm0 0" fill="#e48e66"/><path d="m296.519531 192.371094c3.015625-3.359375 4.679688-7.71875 4.671875-12.230469v-53.652344c.167969.011719.328125.011719.5.011719 27.546875.011719 49.917969-22.257812 50.03125-49.804688.117188-27.546874-22.066406-50.003906-49.613281-50.222656s-50.085937 21.878906-50.410156 49.425782h-97.179688c-9.492187.003906-17.410156 7.25-18.257812 16.703124-.050781.539063-.070313 1.089844-.070313 1.636719v85.902344c.003906 10.121094 8.207032 18.328125 18.328125 18.339844h128.339844c5.214844.003906 10.1875-2.21875 13.660156-6.109375zm133.859375-155.929688v210.96875h-423.378906v-210.96875c0-16.15625 13.09375-29.253906 29.25-29.25h364.878906c16.15625-.003906 29.25 13.09375 29.25 29.25zm0 0" fill="#f8ec7d"/><path d="m301.191406 126.488281c-27.421875-.257812-49.511718-22.566406-49.5-49.988281 0-.199219 0-.398438.007813-.601562.332031-27.535157 22.863281-49.617188 50.398437-49.398438 27.535156.222656 49.710938 22.667969 49.597656 50.203125-.113281 27.539063-22.46875 49.800781-50.003906 49.796875-.171875 0-.332031 0-.5-.011719zm0 0" fill="#e48e66"/><g fill="#6fe3ff"><path d="m296.519531 192.371094c-3.472656 3.890625-8.445312 6.113281-13.660156 6.109375h-128.339844c-10.121093-.011719-18.324219-8.21875-18.328125-18.339844v-85.902344c0-.546875.019532-1.097656.070313-1.636719l71.789062 60.789063c6.15625 5.210937 15.175781 5.207031 21.328125-.011719l39.042969-33.097656 3.828125-3.359375c8.40625 6.144531 18.527344 9.492187 28.941406 9.566406v53.652344c.007813 4.511719-1.65625 8.871094-4.671875 12.230469zm0 0"/><path d="m162.738281 303.359375h111.902344v83.832031h-111.902344zm0 0"/><path d="m272.25 116.921875-3.828125 3.359375-39.042969 33.097656c-6.152344 5.21875-15.171875 5.222656-21.328125.011719l-71.789062-60.789063c.847656-9.453124 8.765625-16.699218 18.257812-16.703124h97.179688c-.007813.203124-.007813.402343-.007813.601562-.007812 15.984375 7.636719 31.011719 20.558594 40.421875zm0 0"/></g><path d="m401.128906.191406h-364.878906c-20.011719.019532-36.2265625 16.238282-36.25 36.25v237.667969c.0234375 20.011719 16.238281 36.226563 36.25 36.25h119.488281v69.832031h-26.9375c-3.867187 0-7 3.132813-7 7 0 3.863282 3.132813 7 7 7h185.039063c3.867187 0 7-3.136718 7-7 0-3.867187-3.132813-7-7-7h-32.199219v-69.832031h119.488281c20.011719-.023437 36.226563-16.238281 36.25-36.25v-237.667969c-.023437-20.011718-16.238281-36.230468-36.25-36.25zm-364.878906 14h364.878906c12.285156.011719 22.238282 9.964844 22.25 22.25v203.96875h-409.378906v-203.96875c.015625-12.285156 9.96875-22.238281 22.25-22.25zm231.390625 366h-97.902344v-69.832031h97.902344zm133.488281-83.832031h-364.878906c-12.28125-.011719-22.234375-9.964844-22.25-22.25v-19.699219h409.378906v19.699219c-.011718 12.285156-9.964844 22.238281-22.25 22.25zm0 0" fill="#63316d"/><path d="m135.851562 197.351562c.183594.183594.378907.355469.582032.515626 4.761718 4.867187 11.28125 7.609374 18.085937 7.613281h128.339844c13.992187-.003907 25.335937-11.347657 25.332031-25.339844v-47.023437c25.679688-2.945313 46.160156-22.808594 49.898438-48.382813 3.738281-25.578125-10.203125-50.46875-33.964844-60.644531-23.761719-10.171875-51.398438-3.082032-67.324219 17.273437-6.273437 7.96875-10.28125 17.480469-11.601562 27.535157h-90.679688c-12.683593-.066407-23.4375 9.308593-25.097656 21.878906-.199219.757812-.269531 1.542968-.207031 2.320312-.015625.371094-.027344.746094-.027344 1.140625v85.902344c.003906 5.777344 1.988281 11.375 5.621094 15.867187.289062.488282.640625.9375 1.042968 1.34375zm18.667969-5.871093c-.910156-.003907-1.816406-.117188-2.699219-.339844l35.046876-35.851563c2.703124-2.765624 2.652343-7.195312-.113282-9.898437s-7.195312-2.652344-9.898437.113281l-33.664063 34.4375v-72.296875l60.339844 51.097657c8.753906 7.453124 21.628906 7.445312 30.375-.015626l38.964844-33.035156c6.539062 3.851563 13.792968 6.34375 21.320312 7.324219v47.003906l-33.917968-34.53125c-1.75-1.796875-4.328126-2.519531-6.757813-1.894531-2.429687.621094-4.339844 2.5-5.007813 4.917969-.667968 2.417969.011719 5.007812 1.777344 6.789062l35.222656 35.847657c-.867187.214843-1.753906.324218-2.648437.328124zm104.171875-115.238281c.003906-.085938.007813-.175782.007813-.261719.269531-23.550781 19.441406-42.492188 42.992187-42.480469 23.746094 0 43 19.25 43 43s-19.253906 43-43 43h-.101562c-.113282-.007812-.222656-.011719-.335938-.011719-8.949218-.058593-17.65625-2.9375-24.875-8.222656l-.011718-.007813c-11.113282-8.09375-17.683594-21.011718-17.675782-34.757812zm-104.171875 6.65625h90.542969c1.363281 12.28125 6.699219 23.78125 15.191406 32.753906.417969.4375.851563.863281 1.28125 1.289062l-36.683594 31.097656c-3.539062 3.015626-8.738281 3.015626-12.277343 0l-68.554688-58.039062c1.746094-4.269531 5.886719-7.070312 10.5-7.101562zm0 0" fill="#63316d"/><path d="m287.214844 94.09375c2.46875 2.894531 6.792968 3.285156 9.742187.886719l32.070313-26.089844c3-2.441406 3.453125-6.851563 1.011718-9.851563-2.441406-2.996093-6.851562-3.449218-9.847656-1.007812l-26.769531 21.773438-9.328125-10.929688c-1.621094-1.921875-4.144531-2.832031-6.617188-2.378906-2.46875.449218-4.511718 2.191406-5.34375 4.5625-.835937 2.371094-.332031 5.007812 1.3125 6.90625zm0 0" fill="#63316d"/></svg>