<svg id="Layer_5" enable-background="new 0 0 64 64" height="512" viewBox="0 0 64 64" width="512" xmlns="http://www.w3.org/2000/svg" xmlns:xlink="http://www.w3.org/1999/xlink"><linearGradient id="SVGID_1_" gradientUnits="userSpaceOnUse" x1="32" x2="32" y1="63" y2="1"><stop offset="0" stop-color="#9f2fff"/><stop offset="1" stop-color="#0bb1d3"/></linearGradient><path d="m21 39h-3v10h3c2.757 0 5-2.243 5-5s-2.243-5-5-5zm0 8h-1v-6h1c1.654 0 3 1.346 3 3s-1.346 3-3 3zm11-8c-2.206 0-4 1.794-4 4v2c0 2.206 1.794 4 4 4s4-1.794 4-4v-2c0-2.206-1.794-4-4-4zm2 6c0 1.103-.897 2-2 2s-2-.897-2-2v-2c0-1.103.897-2 2-2s2 .897 2 2zm6-3v4c0 .552.449 1 1 1h2c.551 0 1-.448 1-1h2c0 1.654-1.346 3-3 3h-2c-1.654 0-3-1.346-3-3v-4c0-1.654 1.346-3 3-3h2c1.654 0 3 1.346 3 3h-2c0-.552-.449-1-1-1h-2c-.551 0-1 .448-1 1zm14-13.726v-27.274h-44v27.274c-7.894 1.119-9 2.508-9 3.726v16c0 1.218 1.106 2.607 9 3.726v11.274h44v-11.274c7.894-1.119 9-2.508 9-3.726v-16c0-1.221-1.113-2.609-9-3.726zm6.819 3.738c-.791.543-3.152 1.158-6.819 1.688v-3.409c4.701.685 6.303 1.393 6.819 1.721zm-8.819-13.426-15.586-15.586h3.172l12.414 12.414zm0-6-9.586-9.586h9.586zm-18.414-9.586 18.414 18.414v12.552c-.657.079-1.341.156-2.063.229.039-.396.063-.795.063-1.195 0-6.617-5.383-12-12-12s-12 5.383-12 12c0 .648.068 1.29.171 1.925-5.666-.149-10.441-.508-14.171-.959v-30.966zm-5.37 31.965c-.129-.646-.216-1.301-.216-1.965 0-2.398.85-4.6 2.262-6.324l6.738 6.738v1.527c-1.605.036-3.263.059-5 .059-1.303 0-2.555-.014-3.784-.035zm8.784-4.379-5.324-5.324c1.482-1.213 3.316-2.01 5.324-2.211zm2-7.535c5.046.504 9 4.773 9 9.949 0 .465-.044.927-.107 1.385-2.621.223-5.607.395-8.893.501zm-29 7.24v3.409c-3.667-.531-6.028-1.145-6.819-1.688.516-.327 2.116-1.036 6.819-1.721zm2 30.709v-9.018c.647.077 1.314.149 2 .218v6.8h20v-6.013c6.7-.058 12.968-.408 18-1.005v9.018zm4-8.616c4.758.399 10.251.616 16 .616v4h-16zm16-1.384c-16.946 0-27.768-1.834-29-3.138v-13.748c1.404.601 3.747 1.185 7.655 1.706 5.709.761 13.289 1.18 21.345 1.18s15.636-.419 21.345-1.181c3.908-.521 6.251-1.105 7.655-1.706v13.749c-1.232 1.304-12.054 3.138-29 3.138zm26.751-14.123.497 1.938c-.612.157-1.277.31-2 .456l-.396-1.961c.686-.139 1.317-.284 1.899-.433zm-3.829.782.321 1.975c-.632.103-1.3.201-2.007.295l-.264-1.982c.687-.093 1.336-.187 1.95-.288zm-3.912.522.217 1.988c-.642.07-1.312.136-2.01.198l-.178-1.992c.685-.061 1.341-.126 1.971-.194zm-35.01-31.181h-2v-2h2zm16 0h-14v-2h14zm0 4h-18v-2h18zm4 4h-22v-2h22zm-18 4h-4v-2h4zm2-2h16v2h-16zm4 6h-10v-2h10zm0 4h-10v-2h10zm0 4h-10v-2h10zm12 26h14v2h-14zm-29-11.879c1.482.348 3.61.685 6.112.965l-.224 1.988c-3.096-.348-5.571-.768-7.159-1.214l-.729-.205v-3.655h2zm0-4.121h-2v-2h2z" fill="url(#SVGID_1_)"/></svg>