<svg height="982pt" viewBox="1 0 982.90338 982" width="982pt" xmlns="http://www.w3.org/2000/svg"><path d="m212.785156 16.832031h621.988282v883.875c0 36.160157-29.3125 65.472657-65.472657 65.472657h-621.988281v-883.878907c0-36.15625 29.3125-65.46875 65.472656-65.46875zm0 0" fill="#ffc170"/><path d="m527.234375 185.816406c-22.585937 47.253906-60.679687 85.34375-107.933594 107.929688 22.203125 43.550781 51.375 83.183594 86.359375 117.328125l8.183594-8.183594c4.113281-65.882813 56.617188-118.402344 122.5-122.535156l8.183594-8.183594c-34.132813-34.980469-73.753906-64.152344-117.292969-86.355469zm0 0" fill="#66a7f6"/><path d="m737.15625 179.59375-92.59375 92.578125c2.648438 2.667969 5.433594 5.453125 7.984375 8.183594 55.417969 3.292969 102.691406 41.269531 117.851563 94.675781 10.554687-2.886719 21.3125-4.976562 32.179687-6.253906 8.453125-69.765625-15.679687-139.542969-65.421875-189.183594zm0 0" fill="#66a7f6"/><path d="m636.34375 280.355469c5.394531-.359375 10.808594-.359375 16.203125 0-2.554687-2.78125-5.335937-5.5625-7.988281-8.183594zm0 0" fill="#99c5f9"/><g fill="#66a7f6"><path d="m419.300781 293.746094c47.253907-22.585938 85.347657-60.675782 107.933594-107.929688-49.433594-23.949218-92.382813-28.007812-114.152344-6.222656-21.769531 21.789062-17.726562 64.753906 6.21875 114.152344zm0 0"/><path d="m644.558594 272.171875 92.59375-92.578125c-49.691406-49.707031-119.492188-73.785156-189.261719-65.292969-2.957031 24.800781-9.9375 48.957031-20.660156 71.515625 43.554687 22.203125 83.1875 51.371094 117.328125 86.355469zm0 0"/><path d="m527.234375 185.816406c10.722656-22.558594 17.699219-46.714844 20.65625-71.515625-51.007813 5.957031-98.511719 28.964844-134.808594 65.292969 21.769531-21.785156 64.71875-17.726562 114.152344 6.222656zm0 0"/><path d="m81.839844 966.179688h687.460937c-36.160156 0-65.472656-29.3125-65.472656-65.472657v-65.472656h-687.460937v65.472656c0 36.160157 29.3125 65.472657 65.472656 65.472657zm0 0"/><path d="m413.082031 503.667969c49.664063 49.757812 119.476563 73.875 189.265625 65.390625 1.277344-10.867188 3.367188-21.625 6.25-32.179688-53.402344-15.164062-91.382812-62.433594-94.6875-117.851562-2.765625-2.554688-5.550781-5.335938-8.183594-7.988282zm0 0"/></g><path d="m513.957031 419.0625c-.34375-5.398438-.34375-10.808594 0-16.207031l-8.183593 8.183593c2.554687 2.683594 5.335937 5.46875 8.183593 8.023438zm0 0" fill="#99c5f9"/><path d="m413.082031 179.59375c-36.335937 36.296875-59.347656 83.796875-65.308593 134.808594 24.804687-2.957032 48.964843-9.933594 71.527343-20.65625-23.945312-49.398438-28.003906-92.382813-6.21875-114.152344zm0 0" fill="#66a7f6"/><path d="m419.300781 293.746094c-22.5625 10.722656-46.722656 17.699218-71.527343 20.65625-8.480469 69.773437 15.605468 139.570312 65.308593 189.265625l92.578125-92.59375c-34.984375-34.144531-64.15625-73.777344-86.359375-117.328125zm0 0" fill="#66a7f6"/><path d="m834.773438 82.300781v65.472657h130.945312v-65.472657c0-36.15625-29.3125-65.46875-65.472656-65.46875s-65.472656 29.3125-65.472656 65.46875zm0 0" fill="#66a7f6"/><path d="m795.015625 538.382812 11.570313-11.570312-46.285157-46.304688-46.308593 46.304688 46.308593 46.289062 11.570313-11.574218zm0 0" fill="#4d7db9"/><path d="m771.875 561.523438 23.148438-23.148438c12.785156-12.785156 33.511718-12.785156 46.292968 0l115.742188 115.738281c12.785156 12.785157 12.785156 33.511719 0 46.296875l-23.148438 23.148438c-12.785156 12.785156-33.511718 12.785156-46.296875 0l-115.738281-115.738282c-12.785156-12.785156-12.785156-33.511718 0-46.296874zm0 0" fill="#66a7f6"/><path d="m795.015625 538.382812-23.144531 23.144532zm0 0" fill="#99c5f9"/><path d="m769.300781 409.664062c0 72.320313-58.625 130.945313-130.945312 130.945313-72.320313 0-130.945313-58.625-130.945313-130.945313 0-72.316406 58.625-130.945312 130.945313-130.945312 72.320312 0 130.945312 58.628906 130.945312 130.945312zm0 0" fill="#c2dcfb"/><path d="m834.773438 737.027344c-9.039063 0-16.367188 7.328125-16.367188 16.367187v147.3125c0 27.121094-21.984375 49.105469-49.105469 49.105469-27.117187 0-49.105469-21.984375-49.105469-49.105469v-65.472656c0-9.039063-7.328124-16.367187-16.367187-16.367187h-540.148437v-736.566407c.890624-27.898437 24.148437-49.835937 52.050781-49.101562h619.46875c-10.832031 14.082031-16.734375 31.335937-16.792969 49.101562v147.3125c0 9.042969 7.328125 16.371094 16.367188 16.371094 9.039062 0 16.367187-7.328125 16.367187-16.371094v-65.46875h114.578125c9.039062 0 16.367188-7.332031 16.367188-16.371093v-65.472657c-.054688-45.175781-36.664063-81.785156-81.839844-81.839843h-684.515625c-45.980469-.730469-83.890625 35.863281-84.785157 81.839843v736.566407h-114.578124c-9.039063 0-16.367188 7.328124-16.367188 16.367187v65.472656c.0546875 45.175781 36.664062 81.789063 81.839844 81.84375h687.460937c45.175781-.054687 81.785157-36.664062 81.839844-81.84375v-147.3125c0-9.039062-7.328125-16.367187-16.367187-16.367187zm114.578124-654.726563v49.105469h-98.210937v-49.105469c0-27.117187 21.988281-49.101562 49.105469-49.101562 27.117187 0 49.105468 21.984375 49.105468 49.101562zm-916.617187 818.40625v-49.101562h654.726563v49.101562c.058593 17.769531 5.960937 35.023438 16.792968 49.105469h-622.414062c-27.117188 0-49.105469-21.984375-49.105469-49.105469zm0 0"/><path d="m690.847656 457.363281c-25.921875 24.699219-66.671875 24.699219-92.59375 0-6.5-6.28125-16.863281-6.101562-23.144531.398438-6.125 6.34375-6.125 16.402343 0 22.742187 38.355469 38.351563 100.53125 38.351563 138.886719 0 6.277344-6.5 6.097656-16.863281-.402344-23.140625-6.34375-6.128906-16.402344-6.128906-22.746094 0zm0 0"/><path d="m968.632812 642.550781-115.738281-115.738281c-9.84375-9.503906-23.203125-14.46875-36.863281-13.703125l-36.140625-36.140625c74.800781-112.847656 43.957031-264.96875-68.894531-339.773438-49.070313-32.527343-108.210938-46.304687-166.609375-38.820312-.402344.035156-.800781.097656-1.195313.179688-110.304687 13.984374-197.164062 100.84375-211.148437 211.148437-.097657.328125 0 .6875-.144531 1.03125-17.339844 134.175781 77.375 257.003906 211.550781 274.339844 10.304687 1.332031 20.679687 2.007812 31.074219 2.019531 9.949218 0 19.890624-.59375 29.773437-1.78125 37.953125-4.46875 74.332031-17.789062 106.195313-38.890625l35.730468 35.714844c-.808594 13.859375 4.320313 27.40625 14.109375 37.253906l115.738281 115.753906c19.175782 19.171875 50.257813 19.171875 69.433594 0l23.164063-23.144531c19.125-19.203125 19.109375-50.261719-.035157-69.449219zm-181.570312-287.867187c-2.082031.359375-4.144531.722656-6.207031 1.148437-18.351563-46.136719-58.960938-79.730469-107.71875-89.109375l63.429687-63.296875c36.007813 41.851563 54.140625 96.171875 50.496094 151.257813zm-286.707031 27.15625c-22.8125-24.632813-42.675781-51.839844-59.1875-81.070313 38.964843-21.875 71.148437-54.058593 93.023437-93.023437 29.234375 16.507812 56.449219 36.363281 81.085938 59.171875-58.015625 11.554687-103.367188 56.90625-114.921875 114.921875zm-75.71875-190.6875c13.539062-13.519532 43-12.652344 80.023437 2.371094-18.628906 32.25-45.414062 59.035156-77.664062 77.667968-15.027344-37.023437-15.894532-66.488281-2.359375-80.039062zm-27.21875 94.277344c-9.59375 3.640624-19.441407 6.578124-29.460938 8.792968 3.761719-16.71875 9.539063-32.914062 17.199219-48.238281 2.789062 13.519531 6.894531 26.730469 12.261719 39.445313zm82.167969-133.757813c15.308593-7.660156 31.488281-13.4375 48.1875-17.203125-2.214844 10.019531-5.148438 19.863281-8.773438 29.460938-12.703125-5.375-25.90625-9.480469-39.414062-12.257813zm233.917968 28.496094-69.207031 69.089843c-28.777344-27.738281-60.980469-51.683593-95.835937-71.25 6.164062-15.652343 10.703124-31.898437 13.539062-48.484374 4.367188-.277344 8.738281-.621094 13.09375-.621094 50.753906-.003906 99.832031 18.183594 138.324219 51.265625zm-350.460937 148.359375c16.597656-2.847656 32.851562-7.390625 48.515625-13.566406 19.605468 34.84375 43.566406 67.050781 71.300781 95.851562l-69.125 69.105469c-35.957031-41.941407-54.144531-96.25-50.691406-151.390625zm73.820312 174.4375 63.347657-63.347656c9.363281 48.75 42.929687 89.359374 89.042968 107.734374-.429687 2.0625-.789062 4.144532-1.148437 6.238282-55.101563 3.625-109.421875-14.558594-151.242188-50.625zm176.1875 18.136718c-46.714843-13.28125-79.933593-54.640624-82.824219-103.121093-.308593-4.691407-.308593-9.402344 0-14.09375 3.582032-57.628907 49.519532-103.574219 107.148438-107.160157 4.691406-.328124 9.398438-.328124 14.09375 0h.097656c63.199219 3.960938 111.222656 58.40625 107.261719 121.605469-1.613281 25.738281-11.855469 50.179688-29.070313 69.378907-1.261718 1.421874-2.71875 2.878906-4.175781 4.320312l-3.765625 3.765625c-.242187.195313-.503906.34375-.75.554687-29.269531 26.4375-70.144531 35.820313-108.015625 24.796876zm135.628907-5.878906.324218-.308594 11.277344-11.296874 23.144531 23.164062-23.160156 23.140625-23.144531-23.140625zm196.792968 173.632813-23.144531 23.144531c-6.46875 6.207031-16.679687 6.207031-23.144531 0l-115.742188-115.738281c-6.375-6.390625-6.375-16.738281 0-23.128907l3.863282-3.859374 19.300781-19.300782c6.386719-6.378906 16.738281-6.378906 23.125 0l115.738281 115.742188c6.496094 6.289062 6.839844 16.464844.550781 22.957031-.121093.125-.242187.25-.546875.183594zm0 0"/><path d="m474.675781 720.660156h32.734375v32.734375h-32.734375zm0 0"/><path d="m523.78125 720.660156h32.734375v32.734375h-32.734375zm0 0"/><path d="m572.882812 720.660156h32.738282v32.734375h-32.738282zm0 0"/><path d="m425.570312 720.660156h32.738282v32.734375h-32.738282zm0 0"/><path d="m376.464844 720.660156h32.738281v32.734375h-32.738281zm0 0"/></svg>